# xmcd
#
# Track frame offsets: 
#        150
#        15312
#        34500
#        49085
#        72517
#        96945
#        111315
#        131167
#        147142
#        165840
#
# Disc length: 2560 seconds
#
# Revision: 1
# Processed by: cddbd v1.5.2PL0 Copyright (c) Steve Scherf et al.
# Submitted via: ExactAudioCopyFreeDBPlugin 1.0
#
DISCID=8009fe0a
DTITLE=太田裕美 - I do, You do
DYEAR=1983
DGENRE=JPop
TTITLE0=満月の夜　君んちへ行ったよ
TTITLE1=葉桜のハイウェイ
TTITLE2=お墓通りあたり
TTITLE3=ガラスの週末
TTITLE4=こ・こ・に・い・る・よ
TTITLE5=移り気なマイ・ボーイ
TTITLE6=パスしな！
TTITLE7=ロンリィ・ピーポーIII
TTITLE8=ロンリィ・ピーポーII
TTITLE9=33回転のパーティー
EXTD=YEAR: 1983
EXTT0=
EXTT1=
EXTT2=
EXTT3=
EXTT4=
EXTT5=
EXTT6=
EXTT7=
EXTT8=
EXTT9=
PLAYORDER=
